<?xml version="1.0" ?><svg enable-background="new 0 0 512 512" id="Layer_1" version="1.1" viewBox="0 0 512 512" xml:space="preserve" xmlns="http://www.w3.org/2000/svg" xmlns:xlink="http://www.w3.org/1999/xlink"><g><g><linearGradient gradientUnits="userSpaceOnUse" id="SVGID_1_" x1="0.0000083" x2="512" y1="256" y2="256"><stop offset="0" style="stop-color:#95A5A6"/><stop offset="1" style="stop-color:#7F8C8D"/></linearGradient><circle cx="256" cy="256" fill="url(#SVGID_1_)" r="256"/><linearGradient gradientUnits="userSpaceOnUse" id="SVGID_2_" x1="42.6666756" x2="469.333313" y1="256.0005188" y2="256.0005188"><stop offset="0" style="stop-color:#7F8C8D"/><stop offset="1" style="stop-color:#95A5A6"/></linearGradient><path d="M256,469.3338623c-117.6309204,0-213.3333282-95.7023926-213.3333282-213.3333435    c0-117.6314545,95.7024078-213.333313,213.3333282-213.333313c117.636261,0,213.333313,95.7018661,213.333313,213.333313    C469.333313,373.6314697,373.636261,469.3338623,256,469.3338623z" fill="url(#SVGID_2_)"/></g><g><polygon opacity="0.3" points="305.0624084,149.0048065 305.0624084,199.0005341 355.0570679,199.0005341   "/><path d="M295.0629272,209v-64.9946747h-127.121582v239.9888153h192.1178589V209H295.0629272z M264,357.7135925    l-47.3760071-47.380249l7.0704041-7.0704041L259,338.5738525V232.4015961h9.9994507v106.1722565l35.3061523-35.3109131    l7.0704041,7.0704041L264,357.7135925z" opacity="0.3"/></g><g><polygon fill="#FFFFFF" points="297.0624084,141.0047913 297.0624084,191.0005341 347.0570679,191.0005341   "/><path d="M287.0629272,201v-64.9946747h-127.121582v239.9888153h192.1178589V201H287.0629272z M256,349.7135925    l-47.3760071-47.380249l7.0704041-7.0704041L251,330.5738525V224.4015961h9.9994507v106.1722565l35.3061523-35.3109131    l7.0704041,7.0704041L256,349.7135925z" fill="#FFFFFF"/></g></g></svg>