<svg xmlns="http://www.w3.org/2000/svg" xmlns:xlink="http://www.w3.org/1999/xlink"><defs>
</defs><symbol id="icon-close" viewBox="0 0 20 20"><path d="M.293 18.291a1 1 0 101.414 1.414L10 11.413l8.292 8.292a1 1 0 101.414-1.414l-8.292-8.292 8.292-8.292A1 1 0 1018.291.293L9.999 8.585 1.707.293A1 1 0 10.293 1.707L8.585 10 .293 18.291z" fill="currentColor"/></symbol><symbol id="icon-download" viewBox="0 0 512 512"><g><g><linearGradient gradientUnits="userSpaceOnUse" id="SVGID_1_" x1="0.0000083" x2="512" y1="256" y2="256"><stop offset="0" style="stop-color:#95A5A6"/><stop offset="1" style="stop-color:#7F8C8D"/></linearGradient><circle cx="256" cy="256" fill="url(#SVGID_1_)" r="256"/><linearGradient gradientUnits="userSpaceOnUse" id="SVGID_2_" x1="42.6666756" x2="469.333313" y1="256.0005188" y2="256.0005188"><stop offset="0" style="stop-color:#7F8C8D"/><stop offset="1" style="stop-color:#95A5A6"/></linearGradient><path d="M256,469.3338623c-117.6309204,0-213.3333282-95.7023926-213.3333282-213.3333435    c0-117.6314545,95.7024078-213.333313,213.3333282-213.333313c117.636261,0,213.333313,95.7018661,213.333313,213.333313    C469.333313,373.6314697,373.636261,469.3338623,256,469.3338623z" fill="url(#SVGID_2_)"/></g><g><polygon opacity="0.3" points="305.0624084,149.0048065 305.0624084,199.0005341 355.0570679,199.0005341   "/><path d="M295.0629272,209v-64.9946747h-127.121582v239.9888153h192.1178589V209H295.0629272z M264,357.7135925    l-47.3760071-47.380249l7.0704041-7.0704041L259,338.5738525V232.4015961h9.9994507v106.1722565l35.3061523-35.3109131    l7.0704041,7.0704041L264,357.7135925z" opacity="0.3"/></g><g><polygon fill="#FFFFFF" points="297.0624084,141.0047913 297.0624084,191.0005341 347.0570679,191.0005341   "/><path d="M287.0629272,201v-64.9946747h-127.121582v239.9888153h192.1178589V201H287.0629272z M256,349.7135925    l-47.3760071-47.380249l7.0704041-7.0704041L251,330.5738525V224.4015961h9.9994507v106.1722565l35.3061523-35.3109131    l7.0704041,7.0704041L256,349.7135925z" fill="#FFFFFF"/></g></g></symbol><symbol id="icon-tg" viewBox="0 0 261 261">
  <g id="Layer_x0020_1">
    <g id="_445047880">
      <rect fill="#20A0E1" height="261" rx="28" ry="28" width="261"/><g>
      <path fill="#FEFEFE" d="M172 100c1,-2 3,-2 3,-5 -4,0 -7,3 -9,4l-67 42 13 41c2,-2 2,-4 2,-8 0,-2 1,-6 1,-8l0 -7c1,-1 1,-2 1,-4 0,-1 0,-2 0,-3 1,-2 2,-1 3,-3 15,-16 36,-34 53,-49z"/>
      <path fill="#CCD8E6" d="M66 129l33 12 70 -44c2,-1 4,-2 6,-2 0,3 -4,6 -6,8 -15,13 -40,32 -53,47l12 9c2,0 7,5 8,6 2,1 10,7 11,9 2,0 2,1 3,2l10 7c4,3 8,8 15,3l22 -100c3,-17 -5,-14 -16,-10l-112 45c-4,2 -8,7 -3,8z"/>
      <path fill="#ABBDD5" d="M112 182l1 1c2,0 4,-1 6,-3l17 -15c-1,-1 -6,-6 -8,-6l-12 -9 -4 32z"/></g>
      <path fill="#1A82B7" d="M261 139l-65 -65c2,2 2,5 1,12l-22 100c-7,5 -11,0 -15,-3l-10 -7c-1,-1 -1,-2 -3,-2 -1,-2 -9,-8 -11,-9l-17 15c-2,1 -4,2 -6,3l79 78 41 0 28 -28 0 -94z"/>
      <polygon fill="#1A82B7" points="66,129 109,173 99,141 "/></g></g></symbol></svg>